<?xml version="1.0" encoding="UTF-8" standalone="no"?>
<!-- Created with Inkscape (http://www.inkscape.org/) -->

<svg
   xmlns:osb="http://www.openswatchbook.org/uri/2009/osb"
   xmlns:dc="http://purl.org/dc/elements/1.1/"
   xmlns:cc="http://creativecommons.org/ns#"
   xmlns:rdf="http://www.w3.org/1999/02/22-rdf-syntax-ns#"
   xmlns:svg="http://www.w3.org/2000/svg"
   xmlns="http://www.w3.org/2000/svg"
   xmlns:sodipodi="http://sodipodi.sourceforge.net/DTD/sodipodi-0.dtd"
   xmlns:inkscape="http://www.inkscape.org/namespaces/inkscape"
   width="120"
   height="120"
   id="svg2"
   version="1.1"
   inkscape:version="0.48.4 r9939"
   sodipodi:docname="mindbender_logo.svg">
  <defs
     id="defs4">
    <linearGradient
       id="linearGradient5211"
       osb:paint="solid">
      <stop
         style="stop-color:#000000;stop-opacity:1;"
         offset="0"
         id="stop5213" />
    </linearGradient>
  </defs>
  <sodipodi:namedview
     id="base"
     pagecolor="#000000"
     bordercolor="#666666"
     borderopacity="1.0"
     inkscape:pageopacity="0.99215686"
     inkscape:pageshadow="2"
     inkscape:zoom="5.6"
     inkscape:cx="24.701916"
     inkscape:cy="49.252699"
     inkscape:document-units="px"
     inkscape:current-layer="layer1"
     showgrid="false"
     inkscape:window-width="1920"
     inkscape:window-height="1056"
     inkscape:window-x="0"
     inkscape:window-y="24"
     inkscape:window-maximized="1" />
  <metadata
     id="metadata7">
    <rdf:RDF>
      <cc:Work
         rdf:about="">
        <dc:format>image/svg+xml</dc:format>
        <dc:type
           rdf:resource="http://purl.org/dc/dcmitype/StillImage" />
        <dc:title></dc:title>
      </cc:Work>
    </rdf:RDF>
  </metadata>
  <g
     inkscape:label="Layer 1"
     inkscape:groupmode="layer"
     id="layer1"
     transform="translate(0,-932.36218)">
    <rect
       style="fill:#000000;fill-opacity:1;stroke:none"
       id="rect5308"
       width="126.42857"
       height="125.53572"
       x="-3.3928571"
       y="929.86218" />
    <path
       style="font-size:119.85450745000005668px;font-style:normal;font-weight:normal;line-height:125%;letter-spacing:0px;word-spacing:0px;fill:#ffffff;fill-opacity:1;stroke:none;font-family:Sans"
       d="M 42.28125 13.5625 C 37.101012 13.56256 32.611128 14.44534 28.84375 16.1875 C 25.076305 17.92977 21.85335 20.61909 19.15625 24.28125 L 19.15625 15 L 7.28125 15 L 7.28125 74.75 L 7.3125 74.75 L 7.3125 74.8125 L 7.28125 74.8125 C 6.662154 84.3808 14.154202 93.945 28.78125 99.9375 L 29.1875 100.09375 C 49.989427 108.44575 77.839209 106.79205 95.25 96.84375 C 96.21391 96.51005 97.07999 95.8916 97.71875 95 C 99.36097 92.7077 98.82355 89.5172 96.53125 87.875 C 94.358507 86.3184 91.390754 86.72165 89.6875 88.71875 C 76.869526 98.26845 53.214483 100.40435 35.9375 93.40625 L 35.625 93.28125 C 24.902622 88.84965 19.197889 81.8846 19.1875 74.8125 L 19.1875 74.1875 L 19.15625 74.1875 L 19.15625 40.96875 C 19.156226 35.17326 20.915367 30.59655 24.46875 27.21875 C 28.022075 23.80548 32.838536 22.0938 38.875 22.09375 C 43.969524 22.0938 47.71594 23.47673 50.15625 26.25 C 52.59645 28.98781 53.843691 33.24006 53.84375 39 L 53.84375 74.75 L 65.71875 74.75 L 65.71875 40.96875 C 65.71868 35.1377 67.47782 30.53405 71.03125 27.15625 C 74.584528 23.77853 79.440366 22.0938 85.5625 22.09375 C 90.571355 22.0938 94.278393 23.47673 96.71875 26.25 C 99.1589 29.02336 100.37489 33.27562 100.375 39 L 100.375 74.75 L 112.28125 74.75 L 112.28125 38.6875 C 112.28113 30.65202 110.22323 24.4628 106.15625 20.125 C 102.08905 15.75174 96.30442 13.56256 88.8125 13.5625 C 83.246912 13.56256 78.422325 14.62104 74.3125 16.71875 C 70.202517 18.81657 66.672675 22.05993 63.71875 26.46875 C 61.96341 22.27326 59.244228 19.07949 55.5625 16.875 C 51.923463 14.67062 47.504206 13.56256 42.28125 13.5625 z "
       transform="translate(0,932.36218)"
       id="text2993" />
    <text
       xml:space="preserve"
       style="font-size:144px;font-style:normal;font-weight:normal;line-height:125%;letter-spacing:0px;word-spacing:0px;fill:#000000;fill-opacity:1;stroke:none;font-family:Sans"
       x="16.41498"
       y="98.786797"
       id="text2985"
       sodipodi:linespacing="125%"
       transform="translate(0,932.36218)"><tspan
         sodipodi:role="line"
         id="tspan2987"
         x="16.41498"
         y="98.786797" /></text>
  </g>
</svg>
